<svg xmlns="http://www.w3.org/2000/svg" xmlns:xlink="http://www.w3.org/1999/xlink"><symbol id="key-icon"><path fill-rule="evenodd" clip-rule="evenodd" d="M7.683 5.563a4 4 0 10-2.122 2.12l1.127 1.128a.25.25 0 00.226.069l1.269-.254a.25.25 0 01.294.294L8.27 9.951a.25.25 0 00.294.295l1.033-.206a.25.25 0 01.294.294l-.253 1.27a.25.25 0 00.068.225l.141.141a.5.5 0 00.283.142l.99.141a1 1 0 001.132-1.131l-.142-.99a.5.5 0 00-.141-.283L7.683 5.563zM3.5 5a1.5 1.5 0 100-3 1.5 1.5 0 000 3z" fill="#383736"/></symbol><symbol id="x-icon"><path fill-rule="evenodd" clip-rule="evenodd" d="M9.536 1.05a1 1 0 111.414 1.414L7.414 6l3.536 3.536a1 1 0 11-1.414 1.414L6 7.414 2.464 10.95A1 1 0 011.05 9.536L4.586 6 1.05 2.464A1 1 0 112.464 1.05L6 4.586 9.536 1.05z" fill="#EB4B51"/></symbol><symbol id="yes-icon"><path fill-rule="evenodd" clip-rule="evenodd" d="M12 1.022a1 1 0 01-.001 1.414l-6.53 6.53a1 1 0 01-1.384.03L.825 6.01a1 1 0 111.352-1.474l2.201 2.017a.5.5 0 00.692-.015l5.515-5.515a1 1 0 011.414 0z" fill="#64B851"/></symbol></svg>